<mxfile host="app.diagrams.net" agent="Mozilla/5.0 (Macintosh; Intel Mac OS X 10_15_7) AppleWebKit/537.36 (KHTML, like Gecko) Chrome/132.0.0.0 Safari/537.36" version="26.0.2">
  <diagram name="Página-1" id="ek1nwZvmjFLrGCR923J-">
    <mxGraphModel dx="891" dy="553" grid="0" gridSize="10" guides="1" tooltips="1" connect="1" arrows="1" fold="1" page="1" pageScale="1" pageWidth="1654" pageHeight="1169" math="0" shadow="0">
      <root>
        <mxCell id="0" />
        <mxCell id="1" parent="0" />
        <mxCell id="MWwFUmuiccrD-YgOhjz--2" value="Cliente Final" style="shape=umlActor;verticalLabelPosition=bottom;verticalAlign=top;html=1;outlineConnect=0;" vertex="1" parent="1">
          <mxGeometry x="237" y="338" width="50" height="95" as="geometry" />
        </mxCell>
        <mxCell id="MWwFUmuiccrD-YgOhjz--4" value="Empresa Hotelera" style="shape=umlActor;verticalLabelPosition=bottom;verticalAlign=top;html=1;outlineConnect=0;" vertex="1" parent="1">
          <mxGeometry x="938.5" y="333" width="50" height="95" as="geometry" />
        </mxCell>
        <mxCell id="MWwFUmuiccrD-YgOhjz--6" value="CU-A1-03&amp;nbsp;&lt;div&gt;Completar información&amp;nbsp;&lt;/div&gt;&lt;div&gt;personal&lt;/div&gt;" style="ellipse;whiteSpace=wrap;html=1;" vertex="1" parent="1">
          <mxGeometry x="351" y="439" width="135" height="65" as="geometry" />
        </mxCell>
        <mxCell id="MWwFUmuiccrD-YgOhjz--7" value="CU-A1-04&amp;nbsp;&lt;div&gt;Recibir&amp;nbsp;&lt;/div&gt;&lt;div&gt;notificaciones&lt;/div&gt;" style="ellipse;whiteSpace=wrap;html=1;" vertex="1" parent="1">
          <mxGeometry x="347.5" y="520" width="142" height="65" as="geometry" />
        </mxCell>
        <mxCell id="MWwFUmuiccrD-YgOhjz--11" value="&amp;lt;&amp;lt;actor&amp;gt;&amp;gt;&lt;div&gt;Portal de Reservas&lt;/div&gt;" style="rounded=0;whiteSpace=wrap;html=1;" vertex="1" parent="1">
          <mxGeometry x="906" y="110" width="115" height="56" as="geometry" />
        </mxCell>
        <mxCell id="MWwFUmuiccrD-YgOhjz--12" value="" style="endArrow=classic;html=1;rounded=0;exitX=0;exitY=0.5;exitDx=0;exitDy=0;entryX=1;entryY=0.5;entryDx=0;entryDy=0;" edge="1" parent="1" source="MWwFUmuiccrD-YgOhjz--11" target="MWwFUmuiccrD-YgOhjz--8">
          <mxGeometry width="50" height="50" relative="1" as="geometry">
            <mxPoint x="753.0000000000043" y="192.0000000000001" as="sourcePoint" />
            <mxPoint x="853" y="224" as="targetPoint" />
          </mxGeometry>
        </mxCell>
        <mxCell id="MWwFUmuiccrD-YgOhjz--13" value="CU-A0-01&amp;nbsp;&lt;div&gt;Importar reservas&lt;/div&gt;" style="ellipse;whiteSpace=wrap;html=1;fontSize=11;" vertex="1" parent="1">
          <mxGeometry x="533" y="111" width="127" height="54" as="geometry" />
        </mxCell>
        <mxCell id="MWwFUmuiccrD-YgOhjz--14" value="" style="endArrow=block;dashed=1;html=1;rounded=0;entryX=0;entryY=0.5;entryDx=0;entryDy=0;startArrow=none;startFill=0;endFill=1;" edge="1" parent="1" source="MWwFUmuiccrD-YgOhjz--13" target="MWwFUmuiccrD-YgOhjz--8">
          <mxGeometry width="50" height="50" relative="1" as="geometry">
            <mxPoint x="542" y="377" as="sourcePoint" />
            <mxPoint x="592" y="327" as="targetPoint" />
          </mxGeometry>
        </mxCell>
        <mxCell id="MWwFUmuiccrD-YgOhjz--15" value="CU-A0-02&amp;nbsp;&lt;div&gt;Procesar reservas&lt;/div&gt;" style="ellipse;whiteSpace=wrap;html=1;fontSize=11;" vertex="1" parent="1">
          <mxGeometry x="535.5" y="201" width="122" height="54" as="geometry" />
        </mxCell>
        <mxCell id="MWwFUmuiccrD-YgOhjz--16" value="" style="endArrow=classic;dashed=1;html=1;rounded=0;endFill=0;entryX=0.5;entryY=1;entryDx=0;entryDy=0;" edge="1" parent="1" source="MWwFUmuiccrD-YgOhjz--15" target="MWwFUmuiccrD-YgOhjz--13">
          <mxGeometry width="50" height="50" relative="1" as="geometry">
            <mxPoint x="642" y="314" as="sourcePoint" />
            <mxPoint x="692" y="264" as="targetPoint" />
          </mxGeometry>
        </mxCell>
        <mxCell id="MWwFUmuiccrD-YgOhjz--17" value="Include" style="edgeLabel;html=1;align=center;verticalAlign=middle;resizable=0;points=[];rotation=0;" vertex="1" connectable="0" parent="MWwFUmuiccrD-YgOhjz--16">
          <mxGeometry x="-0.0702" y="1" relative="1" as="geometry">
            <mxPoint x="1" y="2" as="offset" />
          </mxGeometry>
        </mxCell>
        <mxCell id="MWwFUmuiccrD-YgOhjz--18" value="CU-A0-03&amp;nbsp;&lt;div&gt;Guardar reservas&lt;/div&gt;" style="ellipse;whiteSpace=wrap;html=1;fontSize=11;" vertex="1" parent="1">
          <mxGeometry x="535.5" y="291" width="122" height="61" as="geometry" />
        </mxCell>
        <mxCell id="MWwFUmuiccrD-YgOhjz--19" value="" style="endArrow=classic;dashed=1;html=1;rounded=0;endFill=0;exitX=0.5;exitY=0;exitDx=0;exitDy=0;entryX=0.5;entryY=1;entryDx=0;entryDy=0;" edge="1" parent="1" source="MWwFUmuiccrD-YgOhjz--18" target="MWwFUmuiccrD-YgOhjz--15">
          <mxGeometry width="50" height="50" relative="1" as="geometry">
            <mxPoint x="659" y="291" as="sourcePoint" />
            <mxPoint x="679" y="263" as="targetPoint" />
          </mxGeometry>
        </mxCell>
        <mxCell id="MWwFUmuiccrD-YgOhjz--20" value="Include" style="edgeLabel;html=1;align=center;verticalAlign=middle;resizable=0;points=[];rotation=0;" vertex="1" connectable="0" parent="MWwFUmuiccrD-YgOhjz--19">
          <mxGeometry x="-0.0702" y="1" relative="1" as="geometry">
            <mxPoint x="1" y="1" as="offset" />
          </mxGeometry>
        </mxCell>
        <mxCell id="MWwFUmuiccrD-YgOhjz--23" value="CU-A1-01&amp;nbsp;&lt;div&gt;Descarga aplicación&lt;/div&gt;" style="ellipse;whiteSpace=wrap;html=1;fontSize=11;" vertex="1" parent="1">
          <mxGeometry x="351" y="197" width="127" height="62" as="geometry" />
        </mxCell>
        <mxCell id="MWwFUmuiccrD-YgOhjz--24" value="" style="endArrow=classic;dashed=1;html=1;rounded=0;endFill=0;exitX=0;exitY=0.5;exitDx=0;exitDy=0;entryX=1;entryY=0.5;entryDx=0;entryDy=0;" edge="1" parent="1" source="MWwFUmuiccrD-YgOhjz--26" target="MWwFUmuiccrD-YgOhjz--6">
          <mxGeometry width="50" height="50" relative="1" as="geometry">
            <mxPoint x="642.0000000000001" y="440.00000000000006" as="sourcePoint" />
            <mxPoint x="570.4" y="503.43" as="targetPoint" />
          </mxGeometry>
        </mxCell>
        <mxCell id="MWwFUmuiccrD-YgOhjz--25" value="Extend" style="edgeLabel;html=1;align=center;verticalAlign=middle;resizable=0;points=[];rotation=0;" vertex="1" connectable="0" parent="MWwFUmuiccrD-YgOhjz--24">
          <mxGeometry x="-0.0702" y="1" relative="1" as="geometry">
            <mxPoint x="3" y="-14" as="offset" />
          </mxGeometry>
        </mxCell>
        <mxCell id="MWwFUmuiccrD-YgOhjz--27" value="CU-A1-02&amp;nbsp;&lt;div&gt;Visualizar reserva&lt;/div&gt;" style="ellipse;whiteSpace=wrap;html=1;fontSize=11;" vertex="1" parent="1">
          <mxGeometry x="351" y="276" width="127" height="62" as="geometry" />
        </mxCell>
        <mxCell id="MWwFUmuiccrD-YgOhjz--28" value="" style="endArrow=classic;html=1;rounded=0;entryX=0;entryY=0.5;entryDx=0;entryDy=0;exitX=1;exitY=0.3333333333333333;exitDx=0;exitDy=0;exitPerimeter=0;" edge="1" parent="1" source="MWwFUmuiccrD-YgOhjz--2" target="MWwFUmuiccrD-YgOhjz--23">
          <mxGeometry width="50" height="50" relative="1" as="geometry">
            <mxPoint x="238" y="400" as="sourcePoint" />
            <mxPoint x="593" y="283" as="targetPoint" />
          </mxGeometry>
        </mxCell>
        <mxCell id="MWwFUmuiccrD-YgOhjz--29" value="" style="endArrow=classic;html=1;rounded=0;entryX=0;entryY=0.5;entryDx=0;entryDy=0;exitX=1;exitY=0.3333333333333333;exitDx=0;exitDy=0;exitPerimeter=0;" edge="1" parent="1" source="MWwFUmuiccrD-YgOhjz--2" target="MWwFUmuiccrD-YgOhjz--27">
          <mxGeometry width="50" height="50" relative="1" as="geometry">
            <mxPoint x="248" y="406" as="sourcePoint" />
            <mxPoint x="359" y="317" as="targetPoint" />
          </mxGeometry>
        </mxCell>
        <mxCell id="MWwFUmuiccrD-YgOhjz--30" value="" style="endArrow=classic;html=1;rounded=0;entryX=0;entryY=0.5;entryDx=0;entryDy=0;exitX=1;exitY=0.3333333333333333;exitDx=0;exitDy=0;exitPerimeter=0;" edge="1" parent="1" source="MWwFUmuiccrD-YgOhjz--2" target="MWwFUmuiccrD-YgOhjz--6">
          <mxGeometry width="50" height="50" relative="1" as="geometry">
            <mxPoint x="239" y="401" as="sourcePoint" />
            <mxPoint x="359" y="397" as="targetPoint" />
          </mxGeometry>
        </mxCell>
        <mxCell id="MWwFUmuiccrD-YgOhjz--31" value="" style="endArrow=classic;html=1;rounded=0;entryX=0;entryY=0.5;entryDx=0;entryDy=0;exitX=1;exitY=0.3333333333333333;exitDx=0;exitDy=0;exitPerimeter=0;" edge="1" parent="1" source="MWwFUmuiccrD-YgOhjz--2" target="MWwFUmuiccrD-YgOhjz--7">
          <mxGeometry width="50" height="50" relative="1" as="geometry">
            <mxPoint x="239" y="401" as="sourcePoint" />
            <mxPoint x="351" y="482" as="targetPoint" />
          </mxGeometry>
        </mxCell>
        <mxCell id="MWwFUmuiccrD-YgOhjz--37" value="" style="endArrow=classic;html=1;rounded=0;entryX=1;entryY=0.5;entryDx=0;entryDy=0;exitX=0;exitY=0.3333333333333333;exitDx=0;exitDy=0;exitPerimeter=0;" edge="1" parent="1" source="MWwFUmuiccrD-YgOhjz--4" target="MWwFUmuiccrD-YgOhjz--36">
          <mxGeometry width="50" height="50" relative="1" as="geometry">
            <mxPoint x="249" y="381" as="sourcePoint" />
            <mxPoint x="361" y="238" as="targetPoint" />
          </mxGeometry>
        </mxCell>
        <mxCell id="MWwFUmuiccrD-YgOhjz--38" value="" style="endArrow=classic;html=1;rounded=0;entryX=1;entryY=0.5;entryDx=0;entryDy=0;exitX=0;exitY=0.3333333333333333;exitDx=0;exitDy=0;exitPerimeter=0;" edge="1" parent="1" source="MWwFUmuiccrD-YgOhjz--4" target="MWwFUmuiccrD-YgOhjz--32">
          <mxGeometry width="50" height="50" relative="1" as="geometry">
            <mxPoint x="899" y="375" as="sourcePoint" />
            <mxPoint x="837" y="234" as="targetPoint" />
          </mxGeometry>
        </mxCell>
        <mxCell id="MWwFUmuiccrD-YgOhjz--39" value="" style="endArrow=classic;html=1;rounded=0;entryX=1;entryY=0.5;entryDx=0;entryDy=0;exitX=0;exitY=0.3333333333333333;exitDx=0;exitDy=0;exitPerimeter=0;" edge="1" parent="1" source="MWwFUmuiccrD-YgOhjz--4" target="MWwFUmuiccrD-YgOhjz--33">
          <mxGeometry width="50" height="50" relative="1" as="geometry">
            <mxPoint x="900" y="375" as="sourcePoint" />
            <mxPoint x="833" y="317" as="targetPoint" />
          </mxGeometry>
        </mxCell>
        <mxCell id="MWwFUmuiccrD-YgOhjz--40" value="" style="endArrow=classic;html=1;rounded=0;entryX=1;entryY=0.5;entryDx=0;entryDy=0;exitX=0;exitY=0.3333333333333333;exitDx=0;exitDy=0;exitPerimeter=0;" edge="1" parent="1" source="MWwFUmuiccrD-YgOhjz--4" target="MWwFUmuiccrD-YgOhjz--34">
          <mxGeometry width="50" height="50" relative="1" as="geometry">
            <mxPoint x="900" y="375" as="sourcePoint" />
            <mxPoint x="833" y="397" as="targetPoint" />
          </mxGeometry>
        </mxCell>
        <mxCell id="MWwFUmuiccrD-YgOhjz--44" value="" style="swimlane;startSize=0;" vertex="1" parent="1">
          <mxGeometry x="325" y="82" width="553" height="522" as="geometry" />
        </mxCell>
        <mxCell id="MWwFUmuiccrD-YgOhjz--35" value="CU-A3-05&amp;nbsp;&lt;div&gt;Reenvío de&amp;nbsp;&lt;/div&gt;&lt;div&gt;notificaciones&lt;/div&gt;" style="ellipse;whiteSpace=wrap;html=1;fontSize=11;" vertex="1" parent="MWwFUmuiccrD-YgOhjz--44">
          <mxGeometry x="399" y="441" width="128" height="62" as="geometry" />
        </mxCell>
        <mxCell id="MWwFUmuiccrD-YgOhjz--34" value="CU-A3-04&amp;nbsp;&lt;div&gt;Validar datos de cliente&lt;/div&gt;" style="ellipse;whiteSpace=wrap;html=1;fontSize=11;" vertex="1" parent="MWwFUmuiccrD-YgOhjz--44">
          <mxGeometry x="399" y="358.5" width="128" height="62" as="geometry" />
        </mxCell>
        <mxCell id="MWwFUmuiccrD-YgOhjz--33" value="CU-A3-03&amp;nbsp;&lt;div&gt;Gestionar autenticacion&lt;/div&gt;" style="ellipse;whiteSpace=wrap;html=1;fontSize=11;" vertex="1" parent="MWwFUmuiccrD-YgOhjz--44">
          <mxGeometry x="399" y="271" width="128" height="62" as="geometry" />
        </mxCell>
        <mxCell id="MWwFUmuiccrD-YgOhjz--32" value="CU-A2-02&amp;nbsp;&lt;div&gt;Imprimir listados&lt;/div&gt;" style="ellipse;whiteSpace=wrap;html=1;fontSize=11;" vertex="1" parent="MWwFUmuiccrD-YgOhjz--44">
          <mxGeometry x="399" y="189" width="128" height="62" as="geometry" />
        </mxCell>
        <mxCell id="MWwFUmuiccrD-YgOhjz--36" value="CU-A2-01&amp;nbsp;&lt;div&gt;Gestión de reservas&lt;/div&gt;" style="ellipse;whiteSpace=wrap;html=1;fontSize=11;" vertex="1" parent="MWwFUmuiccrD-YgOhjz--44">
          <mxGeometry x="399" y="111" width="128" height="62" as="geometry" />
        </mxCell>
        <mxCell id="MWwFUmuiccrD-YgOhjz--8" value="CU-A3-01&amp;nbsp;&lt;div&gt;Envío listados de&lt;/div&gt;&lt;div&gt;reservas&lt;/div&gt;" style="ellipse;whiteSpace=wrap;html=1;fontSize=11;" vertex="1" parent="MWwFUmuiccrD-YgOhjz--44">
          <mxGeometry x="399" y="25" width="128" height="62" as="geometry" />
        </mxCell>
        <mxCell id="MWwFUmuiccrD-YgOhjz--26" value="CU-A1-04&amp;nbsp;&lt;div&gt;Modifica información&amp;nbsp;&lt;/div&gt;&lt;div&gt;personal&lt;/div&gt;" style="ellipse;whiteSpace=wrap;html=1;" vertex="1" parent="MWwFUmuiccrD-YgOhjz--44">
          <mxGeometry x="211" y="357" width="135" height="65" as="geometry" />
        </mxCell>
        <mxCell id="MWwFUmuiccrD-YgOhjz--42" value="" style="endArrow=classic;dashed=1;html=1;rounded=0;endFill=0;exitX=0;exitY=0.5;exitDx=0;exitDy=0;entryX=1;entryY=0.5;entryDx=0;entryDy=0;" edge="1" parent="MWwFUmuiccrD-YgOhjz--44" source="MWwFUmuiccrD-YgOhjz--34" target="MWwFUmuiccrD-YgOhjz--26">
          <mxGeometry width="50" height="50" relative="1" as="geometry">
            <mxPoint x="282" y="219" as="sourcePoint" />
            <mxPoint x="282" y="183" as="targetPoint" />
          </mxGeometry>
        </mxCell>
        <mxCell id="MWwFUmuiccrD-YgOhjz--43" value="Include" style="edgeLabel;html=1;align=center;verticalAlign=middle;resizable=0;points=[];rotation=0;" vertex="1" connectable="0" parent="MWwFUmuiccrD-YgOhjz--42">
          <mxGeometry x="-0.0702" y="1" relative="1" as="geometry">
            <mxPoint x="2" y="-16" as="offset" />
          </mxGeometry>
        </mxCell>
        <mxCell id="MWwFUmuiccrD-YgOhjz--47" value="SISTEMA" style="rounded=0;whiteSpace=wrap;html=1;strokeColor=none;align=center;fontStyle=1" vertex="1" parent="MWwFUmuiccrD-YgOhjz--44">
          <mxGeometry x="3" y="3" width="86" height="34" as="geometry" />
        </mxCell>
        <mxCell id="MWwFUmuiccrD-YgOhjz--46" value="" style="endArrow=classic;html=1;rounded=0;entryX=1;entryY=0.5;entryDx=0;entryDy=0;" edge="1" parent="1" target="MWwFUmuiccrD-YgOhjz--35">
          <mxGeometry width="50" height="50" relative="1" as="geometry">
            <mxPoint x="938" y="365" as="sourcePoint" />
            <mxPoint x="862" y="482" as="targetPoint" />
          </mxGeometry>
        </mxCell>
      </root>
    </mxGraphModel>
  </diagram>
</mxfile>
